<mxfile host="65bd71144e">
    <diagram id="kDtDIMnE1X9GmKjuov4F" name="第 1 页">
        <mxGraphModel dx="638" dy="408" grid="1" gridSize="10" guides="1" tooltips="1" connect="1" arrows="1" fold="1" page="1" pageScale="1" pageWidth="827" pageHeight="1169" math="0" shadow="0">
            <root>
                <mxCell id="0"/>
                <mxCell id="1" parent="0"/>
                <mxCell id="2" value="" style="rounded=0;whiteSpace=wrap;html=1;" vertex="1" parent="1">
                    <mxGeometry x="80" y="600" width="510" height="500" as="geometry"/>
                </mxCell>
                <mxCell id="3" value="uname" style="text;html=1;strokeColor=none;fillColor=none;align=center;verticalAlign=middle;whiteSpace=wrap;rounded=0;" vertex="1" parent="1">
                    <mxGeometry x="80" y="555" width="60" height="30" as="geometry"/>
                </mxCell>
                <mxCell id="4" value="(top search result)" style="text;html=1;strokeColor=none;fillColor=none;align=center;verticalAlign=middle;whiteSpace=wrap;rounded=0;" vertex="1" parent="1">
                    <mxGeometry x="70" y="600" width="130" height="30" as="geometry"/>
                </mxCell>
                <mxCell id="5" value="avatar" style="text;html=1;strokeColor=none;fillColor=none;align=center;verticalAlign=middle;whiteSpace=wrap;rounded=0;" vertex="1" parent="1">
                    <mxGeometry x="105" y="630" width="60" height="30" as="geometry"/>
                </mxCell>
                <mxCell id="6" value="uname" style="text;html=1;strokeColor=none;fillColor=none;align=center;verticalAlign=middle;whiteSpace=wrap;rounded=0;" vertex="1" parent="1">
                    <mxGeometry x="190" y="630" width="60" height="30" as="geometry"/>
                </mxCell>
                <mxCell id="8" value="type=uname" style="text;html=1;strokeColor=none;fillColor=none;align=center;verticalAlign=middle;whiteSpace=wrap;rounded=0;" vertex="1" parent="1">
                    <mxGeometry x="250" y="620" width="60" height="30" as="geometry"/>
                </mxCell>
                <mxCell id="9" value="uid(small)" style="text;html=1;strokeColor=none;fillColor=none;align=center;verticalAlign=middle;whiteSpace=wrap;rounded=0;" vertex="1" parent="1">
                    <mxGeometry x="320" y="630" width="60" height="30" as="geometry"/>
                </mxCell>
                <mxCell id="10" value="+ or √" style="text;html=1;strokeColor=none;fillColor=none;align=center;verticalAlign=middle;whiteSpace=wrap;rounded=0;" vertex="1" parent="1">
                    <mxGeometry x="520" y="610" width="60" height="30" as="geometry"/>
                </mxCell>
                <mxCell id="11" value="Gives 3 results max" style="text;html=1;strokeColor=none;fillColor=none;align=center;verticalAlign=middle;whiteSpace=wrap;rounded=0;" vertex="1" parent="1">
                    <mxGeometry x="210" y="690" width="230" height="30" as="geometry"/>
                </mxCell>
                <mxCell id="12" value="" style="endArrow=none;html=1;exitX=-0.012;exitY=0.133;exitDx=0;exitDy=0;exitPerimeter=0;entryX=1.01;entryY=0.128;entryDx=0;entryDy=0;entryPerimeter=0;" edge="1" parent="1" source="2" target="2">
                    <mxGeometry width="50" height="50" relative="1" as="geometry">
                        <mxPoint x="350" y="940" as="sourcePoint"/>
                        <mxPoint x="400" y="890" as="targetPoint"/>
                    </mxGeometry>
                </mxCell>
                <mxCell id="13" value="" style="endArrow=classic;html=1;entryX=0.5;entryY=0;entryDx=0;entryDy=0;exitX=0.5;exitY=1;exitDx=0;exitDy=0;" edge="1" parent="1" source="14" target="10">
                    <mxGeometry width="50" height="50" relative="1" as="geometry">
                        <mxPoint x="590" y="560" as="sourcePoint"/>
                        <mxPoint x="390" y="840" as="targetPoint"/>
                    </mxGeometry>
                </mxCell>
                <mxCell id="14" value="if not exists: on click: select directy" style="text;html=1;strokeColor=none;fillColor=none;align=center;verticalAlign=middle;whiteSpace=wrap;rounded=0;" vertex="1" parent="1">
                    <mxGeometry x="560" y="500" width="60" height="30" as="geometry"/>
                </mxCell>
                <mxCell id="15" value="..." style="text;html=1;strokeColor=none;fillColor=none;align=center;verticalAlign=middle;whiteSpace=wrap;rounded=0;" vertex="1" parent="1">
                    <mxGeometry x="520" y="640" width="60" height="30" as="geometry"/>
                </mxCell>
                <mxCell id="16" value="on click: show details(hides other results)" style="text;html=1;strokeColor=none;fillColor=none;align=center;verticalAlign=middle;whiteSpace=wrap;rounded=0;" vertex="1" parent="1">
                    <mxGeometry x="600" y="640" width="190" height="30" as="geometry"/>
                </mxCell>
            </root>
        </mxGraphModel>
    </diagram>
</mxfile>